<svg width="400" height="400" viewBox="0 0 400 400" fill="none" xmlns="http://www.w3.org/2000/svg">
<path d="M247 183C247 190.6 243.5 196.167 241.5 197C241.5 197 246 185 238.5 184.5C236.928 184.395 244 179.438 239.5 175.5C235.5 172 230.5 181 230.5 181C230.5 181 226.601 173.052 220.5 177C212 182.5 224 189 224 189C224 189 214.986 191.801 215.5 196.5C216.004 201.102 226.5 201.5 226.5 201.5L230.5 203.5C231.333 203.5 222.5 205.5 218 204.5C210.679 202.873 210.5 191.5 212 183C213.216 176.107 222 169.5 230 169.5C238 169.5 247 173.5 247 183Z" fill="#EECF2D" stroke="#C5AB23"/>
<path d="M140.874 241.256C146.147 246.729 147.489 253.166 146.627 255.154C146.627 255.154 141.541 243.39 135.794 248.234C134.589 249.25 136.241 240.772 130.269 241.059C124.96 241.314 127.604 251.265 127.604 251.265C127.604 251.265 119.282 248.247 117.628 255.323C115.323 265.181 128.474 261.536 128.474 261.536C128.474 261.536 123.927 269.808 127.557 272.834C131.113 275.798 138.948 268.802 138.948 268.802L143.216 267.467C143.816 266.889 138.843 274.458 134.909 276.861C128.507 280.769 120.488 272.703 115.67 265.541C111.763 259.733 113.504 248.881 119.265 243.33C125.025 237.78 134.282 234.415 140.874 241.256Z" fill="#EECF2D" stroke="#C5AB23"/>
<path d="M120.283 192.567C119.609 200.137 115.629 205.372 113.563 206.024C113.563 206.024 119.109 194.471 111.683 193.307C110.127 193.063 117.611 188.753 113.478 184.431C109.804 180.59 104.025 189.111 104.025 189.111C104.025 189.111 100.847 180.849 94.4196 184.24C85.4652 188.964 96.8413 196.503 96.8413 196.503C96.8413 196.503 87.6141 198.494 87.7094 203.22C87.8028 207.848 98.2225 209.176 98.2225 209.176L102.029 211.523C102.859 211.597 93.8834 212.805 89.4899 211.41C82.3417 209.14 83.1727 197.796 85.4208 189.462C87.244 182.704 96.579 176.903 104.547 177.612C112.516 178.322 121.126 183.105 120.283 192.567Z" fill="#EECF2D" stroke="#C5AB23"/>
<path d="M195.947 261.831C188.379 262.523 182.516 259.545 181.504 257.629C181.504 257.629 193.864 261.017 193.679 253.503C193.64 251.928 199.221 258.519 202.732 253.678C205.853 249.376 196.435 245.217 196.435 245.217C196.435 245.217 203.995 240.61 199.507 234.894C193.256 226.931 187.876 239.473 187.876 239.473C187.876 239.473 184.265 230.752 179.633 231.692C175.096 232.613 175.656 243.102 175.656 243.102L174.029 247.268C174.105 248.097 171.308 239.483 171.894 234.911C172.847 227.471 184.156 226.257 192.758 226.976C199.733 227.56 207.113 235.704 207.842 243.671C208.571 251.638 205.408 260.965 195.947 261.831Z" fill="#EECF2D" stroke="#C5AB23"/>
<path d="M292.297 314.405C289.396 321.429 284.036 325.238 281.869 325.245C281.869 325.245 290.609 315.871 283.868 312.546C282.455 311.849 290.884 309.967 288.228 304.609C285.867 299.848 277.81 306.257 277.81 306.257C277.81 306.257 277.24 297.423 270.094 298.743C260.138 300.582 268.748 311.17 268.748 311.17C268.748 311.17 259.347 310.319 258.029 314.858C256.738 319.303 266.287 323.678 266.287 323.678L269.221 327.054C269.991 327.372 261.063 325.848 257.286 323.206C251.14 318.908 255.316 308.328 259.947 301.044C263.703 295.137 274.343 292.384 281.737 295.437C289.132 298.491 295.923 305.624 292.297 314.405Z" fill="#EECF2D" stroke="#C5AB23"/>
<path d="M346.532 238.051C344.559 245.39 339.733 249.857 337.586 250.143C337.586 250.143 345.047 239.723 337.934 237.292C336.443 236.783 344.56 233.832 341.237 228.861C338.283 224.442 331.117 231.835 331.117 231.835C331.117 231.835 329.416 223.148 322.499 225.376C312.862 228.48 322.763 237.873 322.763 237.873C322.763 237.873 313.331 238.238 312.607 242.909C311.899 247.483 321.932 250.594 321.932 250.594L325.275 253.564C326.08 253.78 317.03 253.418 312.944 251.284C306.296 247.812 309.077 236.782 312.732 228.963C315.697 222.622 325.895 218.523 333.62 220.6C341.346 222.677 348.999 228.877 346.532 238.051Z" fill="#EECF2D" stroke="#C5AB23"/>
<path d="M305.18 122.505C312.779 122.558 318.322 126.096 319.141 128.102C319.141 128.102 307.173 123.519 306.621 131.015C306.505 132.586 301.596 125.48 297.628 129.952C294.1 133.928 303.065 138.99 303.065 138.99C303.065 138.99 295.09 142.834 298.996 148.962C304.437 157.5 311.02 145.546 311.02 145.546C311.02 145.546 313.758 154.579 318.461 154.098C323.066 153.626 323.537 143.133 323.537 143.133L325.565 139.147C325.57 138.313 327.509 147.16 326.478 151.653C324.8 158.963 313.426 159.063 304.937 157.504C298.052 156.24 291.506 147.41 291.562 139.411C291.617 131.411 295.68 122.439 305.18 122.505Z" fill="#EECF2D" stroke="#C5AB23"/>
<path d="M223.416 64.8765C226.906 58.1254 232.572 54.7878 234.731 54.966C234.731 54.966 225.223 63.5591 231.655 67.4476C233.004 68.2628 224.445 69.4189 226.634 74.9832C228.58 79.9292 237.155 74.2307 237.155 74.2307C237.155 74.2307 236.968 83.0813 244.201 82.3764C254.277 81.3943 246.603 70.1093 246.603 70.1093C246.603 70.1093 255.896 71.7606 257.597 67.3506C259.263 63.0317 250.122 57.8573 250.122 57.8573L247.488 54.2437C246.747 53.861 255.513 56.1411 259.051 59.096C264.807 63.9036 259.743 74.0883 254.507 80.9501C250.26 86.515 239.424 88.3499 232.317 84.6759C225.211 81.0019 219.053 73.3155 223.416 64.8765Z" fill="#EECF2D" stroke="#C5AB23"/>
<path d="M141.867 68.9471C147.831 64.2363 154.369 63.5324 156.263 64.5854C156.263 64.5854 144.057 68.4921 148.313 74.6875C149.205 75.9863 140.931 73.5094 140.631 79.4813C140.363 84.7896 150.525 83.1348 150.525 83.1348C150.525 83.1348 146.705 91.1206 153.585 93.4614C163.169 96.7226 160.832 83.2769 160.832 83.2769C160.832 83.2769 168.618 88.6143 171.986 85.2983C175.285 82.051 169.092 73.5671 169.092 73.5671L168.182 69.1885C167.665 68.5346 174.71 74.2267 176.714 78.3778C179.976 85.1316 171.162 92.3212 163.562 96.4127C157.398 99.7309 146.769 96.9332 141.811 90.6553C136.852 84.3774 134.412 74.8355 141.867 68.9471Z" fill="#EECF2D" stroke="#C5AB23"/>
<path d="M180.947 149.831C173.379 150.523 167.516 147.545 166.504 145.629C166.504 145.629 178.864 149.017 178.679 141.503C178.64 139.928 184.221 146.519 187.732 141.678C190.853 137.376 181.435 133.217 181.435 133.217C181.435 133.217 188.995 128.61 184.507 122.894C178.256 114.931 172.876 127.473 172.876 127.473C172.876 127.473 169.265 118.752 164.633 119.692C160.096 120.613 160.656 131.102 160.656 131.102L159.029 135.268C159.105 136.097 156.308 127.483 156.894 122.911C157.847 115.471 169.156 114.257 177.758 114.976C184.733 115.56 192.113 123.704 192.842 131.671C193.571 139.638 190.408 148.965 180.947 149.831Z" fill="#EECF2D" stroke="#C5AB23"/>
<path d="M85.8383 137.445C82.1568 144.093 76.3983 147.268 74.245 147.028C74.245 147.028 83.9947 138.71 77.6756 134.639C76.3509 133.786 84.9395 132.875 82.9101 127.25C81.1062 122.251 72.3723 127.702 72.3723 127.702C72.3723 127.702 72.8115 118.86 65.5616 119.359C55.4612 120.053 62.8106 131.552 62.8106 131.552C62.8106 131.552 53.5676 129.636 51.7413 133.996C49.9528 138.265 58.9425 143.699 58.9425 143.699L61.473 147.386C62.2021 147.79 53.5055 145.26 50.0531 142.206C44.4362 137.236 49.7892 127.2 55.2189 120.49C59.6224 115.049 70.5069 113.524 77.5056 117.399C84.5043 121.275 90.4402 129.134 85.8383 137.445Z" fill="#EECF2D" stroke="#C5AB23"/>
<path d="M72.9471 281.831C65.3787 282.523 59.5163 279.545 58.5042 277.629C58.5042 277.629 70.8643 281.017 70.6788 273.503C70.6399 271.928 76.2214 278.519 79.7325 273.678C82.8534 269.376 73.4352 265.217 73.4352 265.217C73.4352 265.217 80.9947 260.61 76.5073 254.894C70.2556 246.931 64.8761 259.473 64.8761 259.473C64.8761 259.473 61.2651 250.752 56.6328 251.692C52.0963 252.613 52.656 263.102 52.656 263.102L51.0288 267.268C51.1047 268.097 48.3081 259.483 48.8939 254.911C49.8469 247.471 61.1563 246.257 69.7576 246.976C76.7333 247.56 84.1127 255.704 84.8418 263.671C85.5708 271.638 82.4076 280.965 72.9471 281.831Z" fill="#EECF2D" stroke="#C5AB23"/>
<path d="M149.947 349.831C142.379 350.523 136.516 347.545 135.504 345.629C135.504 345.629 147.864 349.017 147.679 341.503C147.64 339.928 153.221 346.519 156.732 341.678C159.853 337.376 150.435 333.217 150.435 333.217C150.435 333.217 157.995 328.61 153.507 322.894C147.256 314.931 141.876 327.473 141.876 327.473C141.876 327.473 138.265 318.752 133.633 319.692C129.096 320.613 129.656 331.102 129.656 331.102L128.029 335.268C128.105 336.097 125.308 327.483 125.894 322.911C126.847 315.471 138.156 314.257 146.758 314.976C153.733 315.56 161.113 323.704 161.842 331.671C162.571 339.638 159.408 348.965 149.947 349.831Z" fill="#EECF2D" stroke="#C5AB23"/>
<path d="M215.858 292.811C221.249 298.168 222.731 304.574 221.912 306.58C221.912 306.58 216.572 294.93 210.931 299.897C209.748 300.939 211.217 292.427 205.252 292.844C199.95 293.214 202.809 303.105 202.809 303.105C202.809 303.105 194.423 300.268 192.923 307.378C190.833 317.285 203.902 313.354 203.902 313.354C203.902 313.354 199.535 321.723 203.231 324.67C206.849 327.557 214.531 320.392 214.531 320.392L218.769 318.965C219.356 318.373 214.549 326.049 210.667 328.536C204.353 332.582 196.159 324.692 191.187 317.637C187.155 311.915 188.66 301.028 194.299 295.353C199.939 289.679 209.12 286.114 215.858 292.811Z" fill="#EECF2D" stroke="#C5AB23"/>
<path d="M242.022 239.932C242.702 232.363 246.686 227.131 248.752 226.48C248.752 226.48 243.197 238.03 250.622 239.199C252.179 239.444 244.691 243.749 248.821 248.073C252.492 251.917 258.277 243.4 258.277 243.4C258.277 243.4 261.449 251.665 267.879 248.278C276.837 243.561 265.467 236.014 265.467 236.014C265.467 236.014 274.695 234.03 274.603 229.304C274.513 224.676 264.095 223.34 264.095 223.34L260.29 220.99C259.46 220.916 268.436 219.714 272.829 221.112C279.975 223.388 279.136 234.731 276.882 243.063C275.054 249.82 265.715 255.614 257.747 254.899C249.779 254.183 241.172 249.394 242.022 239.932Z" fill="#EECF2D" stroke="#C5AB23"/>
</svg>
