<svg width="400" height="400" viewBox="0 0 400 400" fill="none" xmlns="http://www.w3.org/2000/svg">
<ellipse cx="154.7" cy="185.695" rx="7.2411" ry="14" transform="rotate(173.849 154.7 185.695)" fill="#5B5A5A"/>
<ellipse cx="154.559" cy="184.39" rx="3.46314" ry="8.3125" transform="rotate(173.849 154.559 184.39)" fill="#2C2A2A"/>
<ellipse cx="259" cy="171" rx="9" ry="14" transform="rotate(64.6904 259 171)" fill="#5B5A5A"/>
<ellipse cx="257.813" cy="171.561" rx="4.30435" ry="8.3125" transform="rotate(64.6904 257.813 171.561)" fill="#2C2A2A"/>
<ellipse cx="196.101" cy="245.07" rx="10.6711" ry="13.1982" transform="rotate(11.5684 196.101 245.07)" fill="#5B5A5A"/>
<ellipse cx="195.853" cy="246.282" rx="5.10357" ry="7.83643" transform="rotate(11.5684 195.853 246.282)" fill="#2C2A2A"/>
<ellipse cx="146" cy="272" rx="9" ry="14" transform="rotate(-157.65 146 272)" fill="#5B5A5A"/>
<ellipse cx="146.499" cy="270.786" rx="4.30435" ry="8.3125" transform="rotate(-157.65 146.499 270.786)" fill="#2C2A2A"/>
<ellipse cx="72.1708" cy="262.96" rx="9" ry="14" transform="rotate(81.548 72.1708 262.96)" fill="#5B5A5A"/>
<ellipse cx="70.8726" cy="263.153" rx="4.30435" ry="8.3125" transform="rotate(81.548 70.8726 263.153)" fill="#2C2A2A"/>
<ellipse cx="59.9985" cy="187.459" rx="9" ry="14" transform="rotate(-41.2636 59.9985 187.459)" fill="#5B5A5A"/>
<ellipse cx="60.8642" cy="188.446" rx="4.30435" ry="8.3125" transform="rotate(-41.2636 60.8642 188.446)" fill="#2C2A2A"/>
<ellipse cx="91.6344" cy="138.36" rx="9" ry="14" transform="rotate(-165.579 91.6344 138.36)" fill="#5B5A5A"/>
<ellipse cx="91.9612" cy="137.089" rx="4.30435" ry="8.3125" transform="rotate(-165.579 91.9612 137.089)" fill="#2C2A2A"/>
<ellipse cx="126.549" cy="90.6099" rx="9" ry="14" transform="rotate(-36.3694 126.549 90.6099)" fill="#5B5A5A"/>
<ellipse cx="127.327" cy="91.6668" rx="4.30435" ry="8.3125" transform="rotate(-36.3694 127.327 91.6668)" fill="#2C2A2A"/>
<ellipse cx="184.337" cy="95.269" rx="9" ry="14" transform="rotate(99.8812 184.337 95.269)" fill="#5B5A5A"/>
<ellipse cx="183.044" cy="95.0438" rx="4.30435" ry="8.3125" transform="rotate(99.8812 183.044 95.0438)" fill="#2C2A2A"/>
<ellipse cx="246.89" cy="76.5113" rx="9" ry="14" transform="rotate(-140.044 246.89 76.5113)" fill="#5B5A5A"/>
<ellipse cx="247.732" cy="75.5053" rx="4.30435" ry="8.3125" transform="rotate(-140.044 247.732 75.5053)" fill="#2C2A2A"/>
<ellipse cx="305" cy="119" rx="9" ry="14" transform="rotate(-48.9809 305 119)" fill="#5B5A5A"/>
<ellipse cx="305.99" cy="119.861" rx="4.30435" ry="8.3125" transform="rotate(-48.9809 305.99 119.861)" fill="#2C2A2A"/>
<ellipse cx="343" cy="207" rx="9" ry="14" transform="rotate(-137.88 343 207)" fill="#5B5A5A"/>
<ellipse cx="343.88" cy="206.027" rx="4.30435" ry="8.3125" transform="rotate(-137.88 343.88 206.027)" fill="#2C2A2A"/>
<ellipse cx="314" cy="292" rx="9" ry="14" transform="rotate(66.9556 314 292)" fill="#5B5A5A"/>
<ellipse cx="312.792" cy="292.514" rx="4.30435" ry="8.3125" transform="rotate(66.9556 312.792 292.514)" fill="#2C2A2A"/>
<ellipse cx="245" cy="307" rx="9" ry="14" transform="rotate(-75.6947 245 307)" fill="#5B5A5A"/>
<ellipse cx="246.272" cy="307.324" rx="4.30435" ry="8.3125" transform="rotate(-75.6947 246.272 307.324)" fill="#2C2A2A"/>
<ellipse cx="200" cy="338" rx="9" ry="14" transform="rotate(48.3527 200 338)" fill="#5B5A5A"/>
<ellipse cx="199.019" cy="338.872" rx="4.30435" ry="8.3125" transform="rotate(48.3527 199.019 338.872)" fill="#2C2A2A"/>
<ellipse cx="115" cy="317" rx="9" ry="14" transform="rotate(-64.3921 115 317)" fill="#5B5A5A"/>
<ellipse cx="116.184" cy="317.567" rx="4.30435" ry="8.3125" transform="rotate(-64.3921 116.184 317.567)" fill="#2C2A2A"/>
<ellipse cx="124" cy="222" rx="9" ry="14" transform="rotate(-74.8095 124 222)" fill="#5B5A5A"/>
<ellipse cx="125.267" cy="222.344" rx="4.30435" ry="8.3125" transform="rotate(-74.8095 125.267 222.344)" fill="#2C2A2A"/>
<ellipse cx="211.507" cy="148.321" rx="9" ry="14" transform="rotate(-2.10179 211.507 148.321)" fill="#5B5A5A"/>
<ellipse cx="211.556" cy="149.632" rx="4.30435" ry="8.3125" transform="rotate(-2.10179 211.556 149.632)" fill="#2C2A2A"/>
<ellipse cx="253.855" cy="233.525" rx="9" ry="14" transform="rotate(-39.5642 253.855 233.525)" fill="#5B5A5A"/>
<ellipse cx="254.691" cy="234.537" rx="4.30435" ry="8.3125" transform="rotate(-39.5642 254.691 234.537)" fill="#2C2A2A"/>
</svg>
