<svg width="400" height="400" viewBox="0 0 400 400" fill="none" xmlns="http://www.w3.org/2000/svg">
<path d="M105.574 100.451C118.237 100.871 128.363 100.035 136.709 109.567C138.435 111.537 139.646 112.611 140.541 115.073C142.486 120.423 140.711 126.669 137.041 129.224C133.37 131.778 77.3881 111.622 75.8317 111.343C74.2754 111.064 79.5372 106.099 82.8135 103.76C90.1238 98.541 96.5971 100.154 105.574 100.451Z" fill="#F3CA8D" stroke="#C99445" stroke-width="2"/>
<path d="M168.891 95.24C165.213 83.1162 161.163 73.798 167.501 62.8275C168.811 60.5591 169.437 59.0671 171.48 57.4273C175.92 53.864 182.405 53.534 186.005 56.1871C189.605 58.8402 188.54 118.331 188.777 119.894C189.013 121.457 182.619 118.074 179.35 115.725C172.056 110.483 171.499 103.835 168.891 95.24Z" fill="#F3CA8D" stroke="#C99445" stroke-width="2"/>
<path d="M321.423 161.574C318.675 173.942 317.628 184.048 306.72 190.494C304.465 191.827 303.187 192.819 300.602 193.244C294.985 194.169 289.173 191.272 287.34 187.193C285.506 183.115 315.643 131.811 316.204 130.333C316.765 128.855 320.675 134.942 322.369 138.594C326.15 146.741 323.371 152.806 321.423 161.574Z" fill="#F3CA8D" stroke="#C99445" stroke-width="2"/>
<path d="M266.376 321.434C255.376 327.72 247.194 333.743 235.087 330.008C232.584 329.236 230.99 328.958 228.937 327.331C224.474 323.797 222.708 317.548 224.493 313.448C226.277 309.347 284.511 297.136 285.982 296.557C287.453 295.978 285.579 302.965 284.017 306.675C280.531 314.954 274.175 316.977 266.376 321.434Z" fill="#F3CA8D" stroke="#C99445" stroke-width="2"/>
<path d="M129.773 315.382C123.472 304.39 117.438 296.216 121.157 284.105C121.926 281.6 122.202 280.006 123.826 277.95C127.354 273.483 133.6 271.709 137.703 273.488C141.806 275.267 154.095 333.484 154.676 334.955C155.257 336.425 148.267 334.56 144.555 333.003C136.272 329.529 134.24 323.174 129.773 315.382Z" fill="#F3CA8D" stroke="#C99445" stroke-width="2"/>
<path d="M61.3394 231.103C51.2461 223.446 42.4984 218.278 41.1916 205.676C40.9214 203.07 40.5528 201.494 41.2446 198.968C42.7481 193.477 47.8051 189.404 52.2771 189.44C56.749 189.475 90.7998 238.268 91.9089 239.395C93.018 240.522 85.8546 241.535 81.8292 241.552C72.8472 241.588 68.495 236.532 61.3394 231.103Z" fill="#F3CA8D" stroke="#C99445" stroke-width="2"/>
<path d="M262.16 92.7312C271.454 101.341 279.653 107.342 279.718 120.011C279.732 122.631 279.944 124.235 279.008 126.682C276.973 131.999 271.542 135.556 267.095 135.083C262.648 134.609 233.544 82.713 232.55 81.4827C231.557 80.2525 238.785 79.9465 242.793 80.3247C251.735 81.1688 255.571 86.6269 262.16 92.7312Z" fill="#F3CA8D" stroke="#C99445" stroke-width="2"/>
<path d="M215.223 163.959C227.46 160.68 236.906 156.938 247.663 163.631C249.887 165.015 251.358 165.69 252.93 167.786C256.346 172.34 256.463 178.832 253.694 182.343C250.924 185.854 191.501 182.841 189.93 183.026C188.36 183.212 191.951 176.931 194.406 173.741C199.884 166.623 206.547 166.284 215.223 163.959Z" fill="#F3CA8D" stroke="#C99445" stroke-width="2"/>
<path d="M187.234 246.772C189.47 234.301 190.101 224.161 200.734 217.272C202.932 215.847 204.168 214.803 206.734 214.272C212.308 213.117 218.234 215.772 220.234 219.772C222.234 223.772 194.234 276.272 193.734 277.772C193.233 279.272 189.077 273.35 187.234 269.772C183.121 261.787 185.648 255.613 187.234 246.772Z" fill="#F3CA8D" stroke="#C99445" stroke-width="2"/>
<path d="M284.245 231.786C296.905 232.26 307.035 231.469 315.34 241.036C317.057 243.014 318.264 244.093 319.148 246.559C321.07 251.917 319.268 258.156 315.586 260.694C311.904 263.233 256.01 242.835 254.455 242.549C252.9 242.263 258.183 237.321 261.47 234.996C268.803 229.809 275.269 231.449 284.245 231.786Z" fill="#F3CA8D" stroke="#C99445" stroke-width="2"/>
<path d="M128.992 208.795C120.409 202.214 112.898 198.019 112.36 185.236C112.249 182.593 112 181.021 112.739 178.336C114.344 172.502 119.035 167.672 123.004 167.138C126.972 166.603 154.794 212.398 155.723 213.414C156.652 214.431 150.242 216.386 146.668 216.917C138.692 218.1 135.077 213.46 128.992 208.795Z" fill="#F3CA8D" stroke="#C99445" stroke-width="2"/>
<g opacity="0.5">
<circle cx="200" cy="200" r="199" stroke="black" stroke-width="2" stroke-dasharray="16 32"/>
</g>
</svg>
