<svg width="400" height="400" viewBox="0 0 400 400" fill="none" xmlns="http://www.w3.org/2000/svg">
<path d="M190.211 174.252L207.116 138C225.242 146.452 234.916 173.031 226.252 191.61L190.211 174.252Z" fill="#F8D6D6" stroke="#DDA9A9" stroke-width="2"/>
<path d="M205.429 234.602L239.715 214C250.016 231.143 243.173 258.587 225.601 269.146L205.429 234.602Z" fill="#F8D6D6" stroke="#DDA9A9" stroke-width="2"/>
<path d="M333.06 178.372L359.826 208.097C344.963 221.48 316.717 220 303 204.765L333.06 178.372Z" fill="#F8D6D6" stroke="#DDA9A9" stroke-width="2"/>
<path d="M225.442 314.805L217.126 353.931C197.563 349.773 182.158 326.052 186.42 306L225.442 314.805Z" fill="#F8D6D6" stroke="#DDA9A9" stroke-width="2"/>
<path d="M227.943 83.7091L205 50.9431C221.383 39.4715 249.238 44.383 260.996 61.1756L227.943 83.7091Z" fill="#F8D6D6" stroke="#DDA9A9" stroke-width="2"/>
<path d="M62.0255 262.476L51 224.026C70.2252 218.513 94.9632 232.225 100.614 251.931L62.0255 262.476Z" fill="#F8D6D6" stroke="#DDA9A9" stroke-width="2"/>
<path d="M100.547 139.332L67 117.547C77.8928 100.773 105.559 94.8928 122.752 106.058L100.547 139.332Z" fill="#F8D6D6" stroke="#DDA9A9" stroke-width="2"/>
<path d="M128.138 271.45L139.163 233C158.389 238.513 172.101 263.251 166.45 282.957L128.138 271.45Z" fill="#F8D6D6" stroke="#DDA9A9" stroke-width="2"/>
<path d="M116 330V290C136 290 156 310 156 330.5L116 330Z" fill="#F8D6D6" stroke="#DDA9A9" stroke-width="2"/>
<path d="M311.433 244.25L346.074 264.25C336.074 281.571 308.753 288.891 291 278.641L311.433 244.25Z" fill="#F8D6D6" stroke="#DDA9A9" stroke-width="2"/>
<path d="M306 150V110C326 110 346 130 346 150.5L306 150Z" fill="#F8D6D6" stroke="#DDA9A9" stroke-width="2"/>
<path d="M245.437 103.392L280.422 84C290.118 101.492 282.322 128.681 264.392 138.62L245.437 103.392Z" fill="#F8D6D6" stroke="#DDA9A9" stroke-width="2"/>
<path d="M133 87V47C153 47 173 67 173 87.5L133 87Z" fill="#F8D6D6" stroke="#DDA9A9" stroke-width="2"/>
<path d="M152.448 102.187L189.535 117.172C182.043 135.715 156.007 146.767 137 139.087L152.448 102.187Z" fill="#F8D6D6" stroke="#DDA9A9" stroke-width="2"/>
<path d="M52 194V154C72 154 92 174 92 194.5L52 194Z" fill="#F8D6D6" stroke="#DDA9A9" stroke-width="2"/>
<path d="M165 174.5V214.5C145 214.5 125 194.5 125 174L165 174.5Z" fill="#F8D6D6" stroke="#DDA9A9" stroke-width="2"/>
<path d="M248 310V270C268 270 288 290 288 310.5L248 310Z" fill="#F8D6D6" stroke="#DDA9A9" stroke-width="2"/>
<path d="M261.905 210.157L245 173.905C263.126 165.452 289.705 175.126 298.368 193.705L261.905 210.157Z" fill="#F8D6D6" stroke="#DDA9A9" stroke-width="2"/>
</svg>
