<svg width="400" height="400" viewBox="0 0 400 400" fill="none" xmlns="http://www.w3.org/2000/svg">
<path d="M173.905 131.05L183.867 130.178L184.589 144.169C184.981 148.652 189.464 148.259 190.697 145.14C192.04 141.742 187.923 137.485 192.253 139.985C202.825 146.087 198.12 161.054 182.173 162.449C166.226 163.844 159.447 149.38 168.345 142.076C171.767 139.268 168.475 143.571 170.816 147.381C173.157 151.192 176.557 149.89 176.121 144.909L173.905 131.05Z" fill="#D9CCC5" stroke="#A49892"/>
<path d="M323.378 178.127L315.088 183.719L307.674 171.833C305.158 168.102 301.427 170.618 301.861 173.944C302.334 177.568 307.998 179.294 302.999 179.208C290.794 178.997 287.653 163.625 300.925 154.673C314.196 145.722 327.137 155.086 322.896 165.787C321.264 169.903 322.057 164.544 318.162 162.346C314.267 160.148 311.925 162.934 314.721 167.08L323.378 178.127Z" fill="#D9CCC5" stroke="#A49892"/>
<path d="M242.391 281H232.391L232.891 267C232.891 262.5 228.391 262.5 226.891 265.5C225.256 268.768 228.987 273.367 224.891 270.5C214.891 263.5 220.883 249 236.891 249C252.898 249 258.391 264 248.891 270.5C245.237 273 248.891 269 246.891 265C244.891 261 241.391 262 241.391 267L242.391 281Z" fill="#D9CCC5" stroke="#A49892"/>
<path d="M103.351 327.063L95.4704 320.906L104.484 310.182C107.254 306.636 103.708 303.865 100.679 305.306C97.3792 306.875 97.4873 312.796 96.0248 308.014C92.4543 296.342 106.103 288.605 118.718 298.46C131.332 308.316 126.425 323.517 114.937 322.79C110.519 322.511 115.861 321.608 116.747 317.225C117.634 312.842 114.26 311.475 111.182 315.415L103.351 327.063Z" fill="#D9CCC5" stroke="#A49892"/>
<path d="M104.728 234.495L101.144 243.831L88.253 238.347C84.0519 236.735 82.4392 240.936 84.7024 243.411C87.1681 246.108 92.7984 244.274 88.6536 247.07C78.5349 253.897 67.1454 243.107 72.882 228.162C78.6187 213.218 94.5906 213.466 97.2544 224.664C98.279 228.971 95.8541 224.127 91.403 224.56C86.9519 224.994 86.6313 228.62 91.2992 230.412L104.728 234.495Z" fill="#D9CCC5" stroke="#A49892"/>
<path d="M151.996 208.937L161.899 207.545L163.352 221.478C163.978 225.934 168.435 225.308 169.503 222.129C170.666 218.665 166.332 214.63 170.787 216.899C181.664 222.439 177.748 237.632 161.896 239.86C146.044 242.088 138.518 227.998 147.021 220.239C150.291 217.255 147.23 221.724 149.767 225.407C152.304 229.09 155.631 227.613 154.935 222.661L151.996 208.937Z" fill="#D9CCC5" stroke="#A49892"/>
<path d="M190.341 322.003L180.681 324.591L177.541 310.938C176.376 306.592 172.029 307.756 171.357 311.042C170.624 314.622 175.418 318.099 170.719 316.39C159.248 312.216 161.283 296.66 176.746 292.516C192.208 288.373 201.395 301.441 193.901 310.178C191.019 313.539 193.513 308.729 190.546 305.383C187.579 302.037 184.457 303.909 185.751 308.738L190.341 322.003Z" fill="#D9CCC5" stroke="#A49892"/>
<path d="M310.625 250.852L316.643 242.866L327.523 251.691C331.116 254.399 333.825 250.805 332.332 247.801C330.705 244.529 324.787 244.741 329.542 243.195C341.151 239.421 349.125 252.933 339.491 265.718C329.857 278.502 314.572 273.861 315.098 262.362C315.301 257.94 316.296 263.265 320.694 264.075C325.093 264.885 326.4 261.488 322.407 258.479L310.625 250.852Z" fill="#D9CCC5" stroke="#A49892"/>
<path d="M262.105 186.747L263.151 196.692L249.175 197.659C244.7 198.129 245.17 202.604 248.31 203.783C251.732 205.066 255.916 200.875 253.492 205.249C247.576 215.926 232.529 211.482 230.856 195.562C229.182 179.642 243.526 172.612 250.983 181.38C253.852 184.753 249.492 181.537 245.723 183.944C241.954 186.351 243.314 189.728 248.287 189.205L262.105 186.747Z" fill="#D9CCC5" stroke="#A49892"/>
<path d="M272.537 100.135L278.415 92.0447L289.447 100.678C293.088 103.323 295.733 99.6827 294.188 96.7058C292.504 93.4627 286.591 93.7774 291.318 92.1489C302.859 88.1732 311.068 101.544 301.658 114.494C292.249 127.445 276.886 123.072 277.211 111.565C277.336 107.14 278.425 112.447 282.836 113.18C287.248 113.913 288.496 110.494 284.451 107.555L272.537 100.135Z" fill="#D9CCC5" stroke="#A49892"/>
<path d="M235.105 61.7472L236.151 71.6924L222.175 72.6585C217.7 73.1289 218.17 77.6043 221.31 78.7825C224.732 80.066 228.916 75.8754 226.492 80.2489C220.576 90.9258 205.529 86.4821 203.856 70.5619C202.182 54.6418 216.526 47.6118 223.983 56.3803C226.852 59.7528 222.492 56.5371 218.723 58.9443C214.954 61.3514 216.314 64.7277 221.287 64.205L235.105 61.7472Z" fill="#D9CCC5" stroke="#A49892"/>
<path d="M86.4133 167.334L77.2778 171.402L72.0403 158.409C70.21 154.298 66.099 156.128 65.9489 159.479C65.7854 163.129 71.0638 165.814 66.1555 164.86C54.1729 162.533 53.7494 146.849 68.3732 140.338C82.9971 133.827 94.1155 145.296 88.0806 155.098C85.7595 158.868 87.4705 153.728 84.0165 150.887C80.5624 148.047 77.7718 150.384 79.8055 154.952L86.4133 167.334Z" fill="#D9CCC5" stroke="#A49892"/>
<path d="M108.897 106.574L111.317 96.8707L124.78 100.743C129.146 101.831 130.235 97.465 127.687 95.2839C124.911 92.9076 119.546 95.4145 123.319 92.1337C132.53 84.1242 145.15 93.4462 141.277 108.979C137.405 124.511 121.522 126.211 117.513 115.421C115.971 111.271 118.968 115.784 123.333 114.811C127.698 113.838 127.575 110.2 122.723 108.99L108.897 106.574Z" fill="#D9CCC5" stroke="#A49892"/>
<path d="M263.596 321.838L261.517 331.619L247.927 328.22C243.526 327.284 242.59 331.686 245.213 333.777C248.07 336.055 253.344 333.362 249.687 336.773C240.761 345.099 227.824 336.223 231.152 320.565C234.48 304.907 250.295 302.653 254.677 313.297C256.363 317.391 253.21 312.985 248.882 314.11C244.553 315.234 244.804 318.866 249.695 319.905L263.596 321.838Z" fill="#D9CCC5" stroke="#A49892"/>
</svg>
