<svg width="400" height="400" viewBox="0 0 400 400" fill="none" xmlns="http://www.w3.org/2000/svg">
<circle cx="304" cy="113" r="16" fill="#A23232"/>
<circle cx="284" cy="65" r="16" fill="#A23232"/>
<circle cx="339" cy="200" r="16" fill="#A23232"/>
<circle cx="236" cy="283" r="16" fill="#A23232"/>
<circle cx="297" cy="299" r="16" fill="#A23232"/>
<circle cx="111" cy="310" r="16" fill="#A23232"/>
<circle cx="167" cy="342" r="16" fill="#A23232"/>
<circle cx="135" cy="235" r="16" fill="#A23232"/>
<circle cx="68" cy="261" r="16" fill="#A23232"/>
<circle cx="45" cy="203" r="16" fill="#A23232"/>
<circle cx="103" cy="189" r="16" fill="#A23232"/>
<circle cx="204" cy="200" r="16" fill="#A23232"/>
<circle cx="268" cy="221" r="16" fill="#A23232"/>
<circle cx="245" cy="342" r="16" fill="#A23232"/>
<circle cx="175" cy="273" r="16" fill="#A23232"/>
<circle cx="158" cy="159" r="16" fill="#A23232"/>
<circle cx="68" cy="131" r="16" fill="#A23232"/>
<circle cx="111" cy="81" r="16" fill="#A23232"/>
<circle cx="167" cy="104" r="16" fill="#A23232"/>
<circle cx="183" cy="49" r="16" fill="#A23232"/>
<circle cx="239" cy="132" r="16" fill="#A23232"/>
<circle cx="339" cy="148" r="16" fill="#A23232"/>
<circle cx="336" cy="252" r="16" fill="#A23232"/>
<circle cx="284" cy="168" r="16" fill="#A23232"/>
<circle cx="229" cy="67" r="16" fill="#A23232"/>
</svg>
