<svg width="400" height="400" viewBox="0 0 400 400" fill="none" xmlns="http://www.w3.org/2000/svg">
<path d="M265.882 102.974L267.212 72.9351C277.302 68.2662 286.411 71.1695 293.89 81.4376L277.269 106.603L265.882 102.974Z" fill="#FFDF39" stroke="#FFF4B9" stroke-width="2"/>
<line x1="275.47" y1="76.1574" x2="271.23" y2="98.4594" stroke="#FFF4B9" stroke-width="2"/>
<line y1="-1" x2="22.7015" y2="-1" transform="matrix(-0.416103 0.909317 0.909317 0.416103 285.549 79.4961)" stroke="#FFF4B9" stroke-width="2"/>
<path d="M301.029 110.549L331.059 112.075C335.662 122.195 332.699 131.285 322.383 138.697L297.326 121.912L301.029 110.549Z" fill="#FFDF39" stroke="#FFF4B9" stroke-width="2"/>
<line x1="327.783" y1="120.312" x2="305.509" y2="115.926" stroke="#FFF4B9" stroke-width="2"/>
<line y1="-1" x2="22.7015" y2="-1" transform="matrix(-0.906587 -0.422018 -0.422018 0.906587 324.378 130.369)" stroke="#FFF4B9" stroke-width="2"/>
<path d="M297.626 198.907L278.356 175.826C282.659 165.575 291.344 161.577 303.791 164.118L308.483 193.91L297.626 198.907Z" fill="#FFDF39" stroke="#FFF4B9" stroke-width="2"/>
<line x1="286.627" y1="172.638" x2="298.532" y2="191.968" stroke="#FFF4B9" stroke-width="2"/>
<line y1="-1" x2="22.7015" y2="-1" transform="matrix(0.305796 0.952097 0.952097 -0.305796 296.322 168.308)" stroke="#FFF4B9" stroke-width="2"/>
<path d="M234.655 206.091L260.48 190.691C269.926 196.553 272.508 205.759 268.041 217.651L237.882 217.598L234.655 206.091Z" fill="#FFDF39" stroke="#FFF4B9" stroke-width="2"/>
<line x1="262.327" y1="199.361" x2="241.365" y2="208.077" stroke="#FFF4B9" stroke-width="2"/>
<line y1="-1" x2="22.7015" y2="-1" transform="matrix(-0.988347 0.152215 0.152215 0.988347 265.078 209.616)" stroke="#FFF4B9" stroke-width="2"/>
<path d="M314.07 261.164L284.754 267.85C277.576 259.361 277.958 249.808 285.874 239.873L314.548 249.222L314.07 261.164Z" fill="#FFDF39" stroke="#FFF4B9" stroke-width="2"/>
<line x1="285.67" y1="259.034" x2="308.298" y2="257.205" stroke="#FFF4B9" stroke-width="2"/>
<line y1="-1" x2="22.7015" y2="-1" transform="matrix(0.987127 0.159935 0.159935 -0.987127 286.215 248.43)" stroke="#FFF4B9" stroke-width="2"/>
<path d="M272.857 322.079L280.949 293.12C291.833 290.854 300.049 295.743 305.011 307.437L283.128 328.19L272.857 322.079Z" fill="#FFDF39" stroke="#FFF4B9" stroke-width="2"/>
<line x1="288.263" y1="298.127" x2="279.087" y2="318.891" stroke="#FFF4B9" stroke-width="2"/>
<line y1="-1" x2="22.7015" y2="-1" transform="matrix(-0.611022 0.791614 0.791614 0.611022 297.326 303.659)" stroke="#FFF4B9" stroke-width="2"/>
<path d="M221.754 350.014L199.124 330.215C201.779 319.419 209.735 314.117 222.425 314.689L231.699 343.387L221.754 350.014Z" fill="#FFDF39" stroke="#FFF4B9" stroke-width="2"/>
<line x1="206.798" y1="325.777" x2="221.568" y2="343.017" stroke="#FFF4B9" stroke-width="2"/>
<line y1="-1" x2="22.7015" y2="-1" transform="matrix(0.450325 0.892865 0.892865 -0.450325 215.7 319.991)" stroke="#FFF4B9" stroke-width="2"/>
<path d="M213.963 292.362L240.266 277.793C249.52 283.953 251.808 293.236 246.964 304.98L216.822 303.966L213.963 292.362Z" fill="#FFDF39" stroke="#FFF4B9" stroke-width="2"/>
<line x1="241.836" y1="286.517" x2="220.607" y2="294.561" stroke="#FFF4B9" stroke-width="2"/>
<line y1="-1" x2="22.7015" y2="-1" transform="matrix(-0.992693 0.120669 0.120669 0.992693 244.259 296.854)" stroke="#FFF4B9" stroke-width="2"/>
<path d="M152.318 331.739L129.16 350.918C118.927 346.574 114.964 337.873 117.554 325.437L147.364 320.863L152.318 331.739Z" fill="#FFDF39" stroke="#FFF4B9" stroke-width="2"/>
<line x1="126.005" y1="342.634" x2="145.382" y2="330.806" stroke="#FFF4B9" stroke-width="2"/>
<line y1="-1" x2="22.7015" y2="-1" transform="matrix(0.953305 -0.302008 -0.302008 -0.953305 121.714 332.922)" stroke="#FFF4B9" stroke-width="2"/>
<path d="M89.1733 291.265L62.0124 278.366C61.6309 267.255 67.8459 259.99 80.2134 257.088L96.942 282.183L89.1733 291.265Z" fill="#FFDF39" stroke="#FFF4B9" stroke-width="2"/>
<line x1="68.1903" y1="272.009" x2="87.0917" y2="284.583" stroke="#FFF4B9" stroke-width="2"/>
<line y1="-1" x2="22.7015" y2="-1" transform="matrix(0.676163 0.736752 0.736752 -0.676163 75.1832 264.019)" stroke="#FFF4B9" stroke-width="2"/>
<path d="M41.637 201.269L65.4597 182.923C75.5329 187.627 79.1854 196.463 76.1564 208.8L46.2027 212.314L41.637 201.269Z" fill="#FFDF39" stroke="#FFF4B9" stroke-width="2"/>
<line x1="68.3193" y1="191.314" x2="48.5357" y2="202.448" stroke="#FFF4B9" stroke-width="2"/>
<line y1="-1" x2="22.7015" y2="-1" transform="matrix(-0.963407 0.268044 0.268044 0.963407 72.264 201.171)" stroke="#FFF4B9" stroke-width="2"/>
<path d="M142.339 210.997L118.914 229.848C108.742 225.361 104.902 216.605 107.666 204.207L137.538 200.052L142.339 210.997Z" fill="#FFDF39" stroke="#FFF4B9" stroke-width="2"/>
<line x1="115.875" y1="221.521" x2="135.416" y2="209.966" stroke="#FFF4B9" stroke-width="2"/>
<line y1="-1" x2="22.7015" y2="-1" transform="matrix(0.957453 -0.28859 -0.28859 -0.957453 111.721 211.75)" stroke="#FFF4B9" stroke-width="2"/>
<path d="M134.801 256.828L163.981 249.573C171.323 257.921 171.126 267.48 163.405 277.567L134.555 268.776L134.801 256.828Z" fill="#FFDF39" stroke="#FFF4B9" stroke-width="2"/>
<line x1="163.236" y1="258.406" x2="140.648" y2="260.673" stroke="#FFF4B9" stroke-width="2"/>
<line y1="-1" x2="22.7015" y2="-1" transform="matrix(-0.990048 -0.140731 -0.140731 0.990048 162.897 269.018)" stroke="#FFF4B9" stroke-width="2"/>
<path d="M218.224 232.046L218.69 262.111C208.898 267.374 199.631 265.021 191.552 255.218L206.64 229.104L218.224 232.046Z" fill="#FFDF39" stroke="#FFF4B9" stroke-width="2"/>
<line x1="210.254" y1="259.388" x2="213.155" y2="236.872" stroke="#FFF4B9" stroke-width="2"/>
<line y1="-1" x2="22.7015" y2="-1" transform="matrix(0.361029 -0.932555 -0.932555 -0.361029 199.994 256.657)" stroke="#FFF4B9" stroke-width="2"/>
<path d="M176.145 206.982L152.804 188.026C155.061 177.141 162.818 171.551 175.52 171.656L185.841 199.994L176.145 206.982Z" fill="#FFDF39" stroke="#FFF4B9" stroke-width="2"/>
<line x1="160.31" y1="183.311" x2="175.703" y2="199.997" stroke="#FFF4B9" stroke-width="2"/>
<line y1="-1" x2="22.7015" y2="-1" transform="matrix(0.482783 0.87574 0.87574 -0.482783 168.994 177.201)" stroke="#FFF4B9" stroke-width="2"/>
<path d="M85.6287 159.571L111.043 143.502C120.639 149.115 123.46 158.25 119.306 170.255L89.1555 170.99L85.6287 159.571Z" fill="#FFDF39" stroke="#FFF4B9" stroke-width="2"/>
<line x1="113.116" y1="152.12" x2="92.3891" y2="161.381" stroke="#FFF4B9" stroke-width="2"/>
<line y1="-1" x2="22.7015" y2="-1" transform="matrix(-0.984034 0.177983 0.177983 0.984034 116.134 162.3)" stroke="#FFF4B9" stroke-width="2"/>
<path d="M71.6533 135.566L57.8453 108.856C64.2684 99.7818 73.6136 97.762 85.2133 102.941L83.3348 133.041L71.6533 135.566Z" fill="#FFDF39" stroke="#FFF4B9" stroke-width="2"/>
<line x1="66.6109" y1="107.537" x2="74.042" y2="128.988" stroke="#FFF4B9" stroke-width="2"/>
<line y1="-1" x2="22.7015" y2="-1" transform="matrix(0.0921078 0.995749 0.995749 -0.0921078 77.0137 105.411)" stroke="#FFF4B9" stroke-width="2"/>
<path d="M129.276 93.3051L148.614 116.329C144.342 126.592 135.669 130.616 123.215 128.112L118.434 98.3346L129.276 93.3051Z" fill="#FFDF39" stroke="#FFF4B9" stroke-width="2"/>
<line x1="140.353" y1="119.542" x2="128.391" y2="100.247" stroke="#FFF4B9" stroke-width="2"/>
<line y1="-1" x2="22.7015" y2="-1" transform="matrix(-0.308623 -0.951185 -0.951185 0.308623 130.671 123.9)" stroke="#FFF4B9" stroke-width="2"/>
<path d="M176.248 150.896L180.886 121.188C191.429 117.661 200.162 121.552 206.462 132.583L187.164 155.76L176.248 150.896Z" fill="#FFDF39" stroke="#FFF4B9" stroke-width="2"/>
<line x1="188.737" y1="125.302" x2="182.061" y2="147" stroke="#FFF4B9" stroke-width="2"/>
<line y1="-1" x2="22.7015" y2="-1" transform="matrix(-0.513924 0.857836 0.857836 0.513924 198.386 129.733)" stroke="#FFF4B9" stroke-width="2"/>
<path d="M175.233 49.5197L203.706 59.1826C205.373 70.1742 200.042 78.1111 188.094 82.4266L168.569 59.4409L175.233 49.5197Z" fill="#FFDF39" stroke="#FFF4B9" stroke-width="2"/>
<line x1="198.306" y1="66.2127" x2="178.075" y2="55.9151" stroke="#FFF4B9" stroke-width="2"/>
<line y1="-1" x2="22.7015" y2="-1" transform="matrix(-0.75702 -0.653391 -0.653391 0.75702 192.287 74.9592)" stroke="#FFF4B9" stroke-width="2"/>
<path d="M235.491 73.2292L235.428 103.297C225.544 108.387 216.32 105.87 208.415 95.9265L223.962 70.0831L235.491 73.2292Z" fill="#FFDF39" stroke="#FFF4B9" stroke-width="2"/>
<line x1="227.041" y1="100.426" x2="230.339" y2="77.965" stroke="#FFF4B9" stroke-width="2"/>
<line y1="-1" x2="22.7015" y2="-1" transform="matrix(0.377416 -0.926044 -0.926044 -0.377416 216.83 97.5149)" stroke="#FFF4B9" stroke-width="2"/>
<path d="M251.261 148.628L244.288 177.877C233.499 180.559 225.101 175.99 219.693 164.495L240.762 142.917L251.261 148.628Z" fill="#FFDF39" stroke="#FFF4B9" stroke-width="2"/>
<line x1="236.786" y1="173.155" x2="245.157" y2="152.053" stroke="#FFF4B9" stroke-width="2"/>
<line y1="-1" x2="22.7015" y2="-1" transform="matrix(0.580143 -0.814515 -0.814515 -0.580143 227.518 167.975)" stroke="#FFF4B9" stroke-width="2"/>
<path d="M326.855 207.047L354.214 219.52C354.769 230.624 348.668 237.985 336.347 241.079L319.229 216.249L326.855 207.047Z" fill="#FFDF39" stroke="#FFF4B9" stroke-width="2"/>
<line x1="348.136" y1="225.973" x2="329.041" y2="213.695" stroke="#FFF4B9" stroke-width="2"/>
<line y1="-1" x2="22.7015" y2="-1" transform="matrix(-0.687575 -0.726113 -0.726113 0.687575 341.269 234.071)" stroke="#FFF4B9" stroke-width="2"/>
<path d="M155.188 52.3666L145.297 80.7612C134.292 82.3399 126.398 76.9456 122.179 64.9636L145.321 45.6237L155.188 52.3666Z" fill="#FFDF39" stroke="#FFF4B9" stroke-width="2"/>
<line x1="138.31" y1="75.3056" x2="148.77" y2="55.1573" stroke="#FFF4B9" stroke-width="2"/>
<line y1="-1" x2="22.7015" y2="-1" transform="matrix(0.65945 -0.751748 -0.751748 -0.65945 129.612 69.2161)" stroke="#FFF4B9" stroke-width="2"/>
</svg>
