<svg width="400" height="407" viewBox="0 0 400 407" fill="none" xmlns="http://www.w3.org/2000/svg">
<path d="M134 206.33C164.478 216.825 187.981 200.064 190.61 173.999C173.457 197.707 162.684 199.814 134 206.33Z" fill="#F5F5F5"/>
<path d="M134 206.33C164.478 216.825 187.981 200.064 190.61 173.999C178.399 213.157 150.46 208.296 134 206.33Z" fill="#C91F7B"/>
<path d="M194 131.122C197.369 163.18 222.493 177.397 247.226 168.764C218.491 163.238 212.028 154.365 194 131.122Z" fill="#F5F5F5"/>
<path d="M194 131.122C197.369 163.18 222.493 177.397 247.226 168.764C206.577 174.247 199.174 146.87 194 131.122Z" fill="#C91F7B"/>
<path d="M150 241.164C156.686 272.697 183.153 284.224 206.854 273.065C177.7 270.558 170.349 262.405 150 241.164Z" fill="#F5F5F5"/>
<path d="M150 241.164C156.686 272.697 183.153 284.224 206.854 273.065C166.995 282.747 156.785 256.289 150 241.164Z" fill="#C91F7B"/>
<path d="M130.637 289.578C106.682 268.009 78.4982 274.254 65.8942 297.219C90.9466 282.099 101.687 284.368 130.637 289.578Z" fill="#F5F5F5"/>
<path d="M130.637 289.578C106.682 268.009 78.4982 274.254 65.8942 297.219C92.4344 265.945 116.253 281.337 130.637 289.578Z" fill="#C91F7B"/>
<path d="M55.7101 240.513C87.9247 239.388 103.86 215.317 96.9738 190.042C89.4561 218.322 80.1539 224.15 55.7101 240.513Z" fill="#F5F5F5"/>
<path d="M55.7101 240.513C87.9247 239.388 103.86 215.317 96.9738 190.042C99.6071 230.975 71.7812 236.45 55.7101 240.513Z" fill="#C91F7B"/>
<path d="M256.429 207.506C232.282 228.858 235.289 257.569 256.675 272.697C244.495 246.091 247.968 235.678 256.429 207.506Z" fill="#F5F5F5"/>
<path d="M256.429 207.506C232.282 228.858 235.289 257.569 256.675 272.697C228.615 242.78 246.609 220.861 256.429 207.506Z" fill="#C91F7B"/>
<path d="M358.203 207C325.969 207 309.203 230.5 315.203 256C323.703 228 333.203 222.5 358.203 207Z" fill="#F5F5F5"/>
<path d="M358.203 207C325.969 207 309.203 230.5 315.203 256C314 215 342 210.5 358.203 207Z" fill="#C91F7B"/>
<path d="M313.975 299.53C283.497 289.036 259.994 305.797 257.365 331.861C274.518 308.154 285.291 306.047 313.975 299.53Z" fill="#F5F5F5"/>
<path d="M313.975 299.53C283.497 289.036 259.994 305.797 257.365 331.861C269.576 292.703 297.516 297.564 313.975 299.53Z" fill="#C91F7B"/>
<path d="M175.167 379.226C192.248 351.89 181.204 325.219 156.399 316.794C175.64 338.84 175.27 349.811 175.167 379.226Z" fill="#F5F5F5"/>
<path d="M175.167 379.226C192.248 351.89 181.204 325.219 156.399 316.794C191.806 337.5 180.785 363.63 175.167 379.226Z" fill="#C91F7B"/>
<path d="M76.8685 163.756C109.083 162.631 125.018 138.561 118.132 113.286C110.614 141.565 101.312 147.393 76.8685 163.756Z" fill="#F5F5F5"/>
<path d="M76.8685 163.756C109.083 162.631 125.018 138.561 118.132 113.286C120.766 154.219 92.9396 159.693 76.8685 163.756Z" fill="#C91F7B"/>
<path d="M200.203 54C167.969 54 151.203 77.5 157.203 103C165.703 75 175.203 69.5 200.203 54Z" fill="#F5F5F5"/>
<path d="M200.203 54C167.969 54 151.203 77.5 157.203 103C156 62 184 57.5 200.203 54Z" fill="#C91F7B"/>
<path d="M269.932 130.781C288.878 104.703 279.721 77.3266 255.564 67.1922C273.221 90.5268 272.086 101.445 269.932 130.781Z" fill="#F5F5F5"/>
<path d="M269.932 130.781C288.878 104.703 279.721 77.3266 255.564 67.1922C289.441 90.3179 276.624 115.615 269.932 130.781Z" fill="#C91F7B"/>
<path d="M303.683 130.682C282.114 154.636 288.36 182.82 311.325 195.424C296.205 170.372 298.474 159.632 303.683 130.682Z" fill="#F5F5F5"/>
<path d="M303.683 130.682C282.114 154.636 288.36 182.82 311.325 195.424C280.051 168.884 295.442 145.065 303.683 130.682Z" fill="#C91F7B"/>
</svg>
