<svg width="400" height="400" viewBox="0 0 400 400" fill="none" xmlns="http://www.w3.org/2000/svg">
<path d="M131.566 124.965C129.074 120.956 116.663 124.332 115.355 127.078C114.048 129.824 110.335 135.518 111.292 139.437C112.181 143.077 113.812 144.329 119.734 144.458C123.993 144.119 126.739 145.427 130.308 147.49C133.878 149.554 146.917 136.128 143.995 126.968C142.9 123.533 139.99 125.82 136.097 127.304C133.761 128.195 132.99 127.255 131.566 124.965Z" fill="#6D4B16" stroke="#422D0E"/>
<path d="M160.225 352.313C164.177 354.893 173.999 346.588 174.023 343.547C174.048 340.505 175.007 333.775 172.483 330.628C170.139 327.705 168.132 327.259 162.709 329.645C158.993 331.753 155.952 331.728 151.845 331.366C147.738 331.004 141.594 348.683 148.113 355.75C150.558 358.4 152.229 355.098 155.13 352.107C156.871 350.313 157.966 350.839 160.225 352.313Z" fill="#6D4B16" stroke="#422D0E"/>
<path d="M264.746 237.371C267.912 233.871 261.246 222.871 258.246 222.371C255.246 221.871 248.749 219.871 245.246 221.871C241.991 223.73 241.237 225.642 242.746 231.371C244.246 235.371 243.746 238.371 242.746 242.371C241.746 246.371 258.246 255.205 266.246 249.871C269.246 247.871 266.246 245.705 263.746 242.371C262.246 240.371 262.936 239.371 264.746 237.371Z" fill="#6D4B16" stroke="#422D0E"/>
<path d="M220.746 351.371C223.912 347.871 217.246 336.871 214.246 336.371C211.246 335.871 204.749 333.871 201.246 335.871C197.991 337.73 197.237 339.642 198.746 345.371C200.246 349.371 199.746 352.371 198.746 356.371C197.746 360.371 214.246 369.205 222.246 363.871C225.246 361.871 222.246 359.705 219.746 356.371C218.246 354.371 218.936 353.371 220.746 351.371Z" fill="#6D4B16" stroke="#422D0E"/>
<path d="M135.855 269.221C140.348 267.773 140.074 254.914 137.726 252.981C135.378 251.048 130.751 246.067 126.718 246.048C122.97 246.03 121.361 247.309 119.803 253.025C119.102 257.239 117.169 259.587 114.303 262.551C111.437 265.515 121.309 281.415 130.904 280.797C134.502 280.564 132.987 277.188 132.489 273.051C132.19 270.569 133.288 270.049 135.855 269.221Z" fill="#6D4B16" stroke="#422D0E"/>
<path d="M201.708 251.061C197.094 250.068 190.901 261.342 191.968 264.19C193.035 267.038 194.552 273.665 198.035 275.698C201.271 277.588 203.305 277.284 207.512 273.113C210.226 269.814 213.074 268.747 217.039 267.613C221.003 266.479 220.402 247.773 211.784 243.512C208.552 241.914 208.175 245.595 206.539 249.427C205.556 251.726 204.345 251.628 201.708 251.061Z" fill="#6D4B16" stroke="#422D0E"/>
<path d="M265.954 135.224C262.002 132.644 252.18 140.949 252.156 143.99C252.131 147.032 251.172 153.762 253.695 156.908C256.04 159.832 258.047 160.278 263.47 157.892C267.186 155.784 270.227 155.809 274.334 156.171C278.441 156.533 284.585 138.854 278.066 131.787C275.621 129.137 273.95 132.439 271.049 135.429C269.308 137.224 268.213 136.698 265.954 135.224Z" fill="#6D4B16" stroke="#422D0E"/>
<path d="M346.691 177.747C348.844 173.547 339.557 164.647 336.53 164.94C333.503 165.234 326.709 164.984 323.843 167.822C321.181 170.459 320.948 172.502 323.887 177.645C326.372 181.121 326.665 184.148 326.734 188.271C326.804 192.393 345.028 196.655 351.375 189.433C353.755 186.724 350.296 185.408 347.019 182.835C345.052 181.292 345.46 180.147 346.691 177.747Z" fill="#6D4B16" stroke="#422D0E"/>
<path d="M300.027 310.387C301.1 305.791 289.936 299.402 287.07 300.419C284.204 301.436 277.552 302.837 275.458 306.285C273.512 309.488 273.78 311.526 277.877 315.805C281.128 318.577 282.145 321.443 283.21 325.426C284.274 329.41 302.988 329.136 307.399 320.593C309.054 317.389 305.379 316.949 301.577 315.245C299.295 314.223 299.414 313.014 300.027 310.387Z" fill="#6D4B16" stroke="#422D0E"/>
<path d="M295.746 184.371C298.912 180.871 292.246 169.871 289.246 169.371C286.246 168.871 279.749 166.871 276.246 168.871C272.991 170.73 272.237 172.642 273.746 178.371C275.246 182.371 274.746 185.371 273.746 189.371C272.746 193.371 289.246 202.205 297.246 196.871C300.246 194.871 297.246 192.705 294.746 189.371C293.246 187.371 293.936 186.371 295.746 184.371Z" fill="#6D4B16" stroke="#422D0E"/>
<path d="M189.206 103.253C187 99.0806 174.383 101.583 172.887 104.231C171.391 106.879 167.29 112.3 167.971 116.276C168.604 119.97 170.144 121.333 176.043 121.874C180.315 121.833 182.963 123.329 186.38 125.637C189.796 127.944 203.74 115.461 201.465 106.119C200.612 102.616 197.55 104.694 193.562 105.903C191.17 106.629 190.466 105.638 189.206 103.253Z" fill="#6D4B16" stroke="#422D0E"/>
<path d="M234.423 139.371C237.59 135.871 230.923 124.871 227.923 124.371C224.923 123.871 218.426 121.871 214.923 123.871C211.669 125.73 210.915 127.642 212.423 133.371C213.923 137.371 213.423 140.371 212.423 144.371C211.423 148.371 227.923 157.205 235.923 151.871C238.923 149.871 235.923 147.705 233.423 144.371C231.923 142.371 232.614 141.371 234.423 139.371Z" fill="#6D4B16" stroke="#422D0E"/>
<path d="M87.7458 100.371C90.9124 96.8714 84.2458 85.8715 81.2458 85.3715C78.2457 84.8714 71.7486 82.8714 68.2457 84.8714C64.9913 86.7296 64.2373 88.6425 65.7457 94.3714C67.2458 98.3714 66.7458 101.371 65.7457 105.371C64.7457 109.371 81.2458 118.205 89.2457 112.871C92.2458 110.871 89.2457 108.705 86.7457 105.371C85.2458 103.371 85.9362 102.371 87.7458 100.371Z" fill="#6D4B16" stroke="#422D0E"/>
<path d="M300.746 104.371C303.912 100.871 297.246 89.8715 294.246 89.3715C291.246 88.8714 284.749 86.8714 281.246 88.8714C277.991 90.7296 277.237 92.6425 278.746 98.3714C280.246 102.371 279.746 105.371 278.746 109.371C277.746 113.371 294.246 122.205 302.246 116.871C305.246 114.871 302.246 112.705 299.746 109.371C298.246 107.371 298.936 106.371 300.746 104.371Z" fill="#6D4B16" stroke="#422D0E"/>
<path d="M215.746 69.3714C218.912 65.8714 212.246 54.8715 209.246 54.3715C206.246 53.8714 199.749 51.8714 196.246 53.8714C192.991 55.7296 192.237 57.6425 193.746 63.3714C195.246 67.3714 194.746 70.3714 193.746 74.3714C192.746 78.3714 209.246 87.2046 217.246 81.8714C220.246 79.8714 217.246 77.7048 214.746 74.3714C213.246 72.3714 213.936 71.3714 215.746 69.3714Z" fill="#6D4B16" stroke="#422D0E"/>
<path d="M52.6476 229.263C56.1476 232.43 67.1475 225.763 67.6476 222.763C68.1476 219.763 70.1476 213.266 68.1476 209.763C66.2894 206.509 64.3765 205.755 58.6476 207.263C54.6476 208.763 51.6476 208.263 47.6476 207.263C43.6476 206.263 34.8144 222.763 40.1476 230.763C42.1476 233.763 44.3142 230.763 47.6476 228.263C49.6476 226.763 50.6476 227.454 52.6476 229.263Z" fill="#6D4B16" stroke="#422D0E"/>
<path d="M100.746 158.371C103.912 154.871 97.2458 143.871 94.2458 143.371C91.2457 142.871 84.7486 140.871 81.2457 142.871C77.9913 144.73 77.2373 146.642 78.7457 152.371C80.2458 156.371 79.7458 159.371 78.7457 163.371C77.7457 167.371 94.2458 176.205 102.246 170.871C105.246 168.871 102.246 166.705 99.7457 163.371C98.2458 161.371 98.9362 160.371 100.746 158.371Z" fill="#6D4B16" stroke="#422D0E"/>
<path d="M177.975 174.676C176.141 170.327 163.354 171.72 161.633 174.228C159.912 176.735 155.353 181.778 155.686 185.798C155.994 189.533 157.409 191.025 163.239 192.079C167.498 192.41 170.006 194.131 173.208 196.728C176.411 199.325 191.39 188.104 189.937 178.599C189.393 175.035 186.161 176.838 182.083 177.695C179.637 178.21 179.022 177.161 177.975 174.676Z" fill="#6D4B16" stroke="#422D0E"/>
<path d="M342.813 127.069C345.155 122.971 333.559 123.441 330.559 122.941C327.559 122.441 326.816 118.569 323.313 120.569C320.059 122.428 315.805 124.341 317.313 130.069C318.813 134.069 323.313 138.069 322.313 142.069C321.313 146.069 327.313 147.403 335.313 142.069C338.313 140.069 347.313 140.569 347.313 136.569C347.313 134.069 338.813 134.069 342.813 127.069Z" fill="#6D4B16" stroke="#422D0E"/>
<path d="M230.318 177.559C229.478 172.914 220.897 180.727 218.277 182.273C215.658 183.818 212.6 181.33 211.202 185.114C209.904 188.629 207.875 192.829 212.713 196.248C216.433 198.348 222.451 198.519 224.256 202.226C226.061 205.933 231.515 203.098 234.215 193.87C235.227 190.41 242.443 185.008 239.872 181.944C238.265 180.028 231.754 185.492 230.318 177.559Z" fill="#6D4B16" stroke="#422D0E"/>
<path d="M73.2054 257.452C70.8273 253.375 65.4359 263.652 63.5028 266C61.5698 268.348 57.8455 267.056 57.8262 271.089C57.8082 274.837 57.3378 279.477 63.0535 281.035C67.2676 281.736 72.9817 279.839 75.9458 282.705C78.9099 285.571 83.0645 281.042 82.4457 271.447C82.2137 267.849 87.1467 260.305 83.6826 258.305C81.5175 257.055 77.2675 264.416 73.2054 257.452Z" fill="#6D4B16" stroke="#422D0E"/>
<path d="M307.092 290.987C305.267 295.34 316.719 293.461 319.758 293.592C322.796 293.722 324.006 297.474 327.239 295.062C330.242 292.821 334.231 290.404 332.036 284.902C330.06 281.115 325.106 277.693 325.611 273.601C326.116 269.509 319.998 268.917 312.708 275.185C309.974 277.536 300.98 278.136 301.468 282.106C301.772 284.588 310.209 283.552 307.092 290.987Z" fill="#6D4B16" stroke="#422D0E"/>
<path d="M140.813 301.069C143.155 296.971 131.559 297.441 128.559 296.941C125.559 296.441 124.816 292.569 121.313 294.569C118.059 296.428 113.805 298.341 115.313 304.069C116.813 308.069 121.313 312.069 120.313 316.069C119.313 320.069 125.313 321.403 133.313 316.069C136.313 314.069 145.313 314.569 145.313 310.569C145.313 308.069 136.813 308.069 140.813 301.069Z" fill="#6D4B16" stroke="#422D0E"/>
<path d="M177.813 231.069C180.155 226.971 168.559 227.441 165.559 226.941C162.559 226.441 161.816 222.569 158.313 224.569C155.059 226.428 150.805 228.341 152.313 234.069C153.813 238.069 158.313 242.069 157.313 246.069C156.313 250.069 162.313 251.403 170.313 246.069C173.313 244.069 182.313 244.569 182.313 240.569C182.313 238.069 173.813 238.069 177.813 231.069Z" fill="#6D4B16" stroke="#422D0E"/>
<path d="M206.813 295.069C209.155 290.971 197.559 291.441 194.559 290.941C191.559 290.441 190.816 286.569 187.313 288.569C184.059 290.428 179.805 292.341 181.313 298.069C182.813 302.069 187.313 306.069 186.313 310.069C185.313 314.069 191.313 315.403 199.313 310.069C202.313 308.069 211.313 308.569 211.313 304.569C211.313 302.069 202.813 302.069 206.813 295.069Z" fill="#6D4B16" stroke="#422D0E"/>
<path d="M79.8134 175.069C82.1552 170.971 70.5592 171.441 67.5592 170.941C64.5591 170.441 63.8161 166.569 60.3133 168.569C57.0589 170.428 52.805 172.341 54.3134 178.069C55.8134 182.069 60.3135 186.069 59.3134 190.069C58.3134 194.069 64.3133 195.403 72.3133 190.069C75.3133 188.069 84.3133 188.569 84.3133 184.569C84.3133 182.069 75.8133 182.069 79.8134 175.069Z" fill="#6D4B16" stroke="#422D0E"/>
<path d="M281.813 263.069C284.155 258.971 272.559 259.441 269.559 258.941C266.559 258.441 265.816 254.569 262.313 256.569C259.059 258.428 254.805 260.341 256.313 266.069C257.813 270.069 262.313 274.069 261.313 278.069C260.313 282.069 266.313 283.403 274.313 278.069C277.313 276.069 286.313 276.569 286.313 272.569C286.313 270.069 277.813 270.069 281.813 263.069Z" fill="#6D4B16" stroke="#422D0E"/>
<path d="M108.177 197.914C103.824 196.089 105.703 207.541 105.572 210.58C105.441 213.618 101.689 214.828 104.101 218.061C106.342 221.064 108.759 225.054 114.262 222.858C118.049 220.882 121.471 215.928 125.563 216.433C129.655 216.938 130.247 210.82 123.979 203.53C121.628 200.796 121.027 191.802 117.057 192.29C114.576 192.594 115.612 201.031 108.177 197.914Z" fill="#6D4B16" stroke="#422D0E"/>
<path d="M329.549 219.101C329.364 214.385 319.779 220.928 316.969 222.094C314.16 223.26 311.479 220.37 309.568 223.922C307.793 227.223 305.199 231.099 309.514 235.158C312.906 237.756 318.842 238.763 320.113 242.685C321.385 246.607 327.18 244.559 331.138 235.796C332.622 232.511 340.52 228.165 338.4 224.773C337.075 222.653 329.867 227.157 329.549 219.101Z" fill="#6D4B16" stroke="#422D0E"/>
<path d="M271.528 74.1383C276.22 73.6241 269.024 64.5187 267.665 61.7977C266.306 59.0767 269.002 56.2 265.325 54.5418C261.908 53.0011 257.86 50.684 254.112 55.2717C251.758 58.8364 251.167 64.8281 247.343 66.3702C243.519 67.9123 245.967 73.55 254.984 76.8874C258.366 78.1389 263.251 85.7139 266.487 83.3627C268.51 81.8933 263.514 75.0166 271.528 74.1383Z" fill="#6D4B16" stroke="#422D0E"/>
<path d="M233.447 327.069C232.246 331.634 243.325 328.179 246.352 327.885C249.379 327.592 251.099 331.139 253.965 328.301C256.628 325.663 260.241 322.715 257.302 317.571C254.817 314.096 249.435 311.397 249.366 307.274C249.297 303.152 243.156 303.417 236.809 310.639C234.429 313.347 225.606 315.194 226.642 319.057C227.289 321.472 235.499 319.272 233.447 327.069Z" fill="#6D4B16" stroke="#422D0E"/>
<path d="M134.584 84.566C134.605 89.2859 144.413 83.0813 147.261 82.0143C150.109 80.9474 152.689 83.9286 154.722 80.4452C156.611 77.2087 159.339 73.4251 155.168 69.218C151.869 66.5039 145.972 65.2898 144.838 61.3257C143.704 57.3616 137.841 59.2069 133.58 67.8256C131.982 71.0576 123.937 75.1247 125.937 78.5888C127.187 80.7538 134.549 76.5038 134.584 84.566Z" fill="#6D4B16" stroke="#422D0E"/>
</svg>
